<?xml version="1.0" standalone="no"?>
<!DOCTYPE svg PUBLIC "-//W3C//DTD SVG 20010904//EN"
 "http://www.w3.org/TR/2001/REC-SVG-20010904/DTD/svg10.dtd">
<svg version="1.0" xmlns="http://www.w3.org/2000/svg"
 width="341.000000pt" height="341.000000pt" viewBox="0 0 341.000000 341.000000"
 preserveAspectRatio="xMidYMid meet">

<g transform="translate(0.000000,341.000000) scale(0.100000,-0.100000)"
fill="#000000" stroke="none">
<path d="M1625 3400 c-185 -21 -373 -141 -459 -293 -19 -34 -24 -37 -51 -32
-16 3 -76 8 -131 11 -196 12 -343 -43 -479 -180 -139 -140 -191 -276 -182
-476 3 -63 9 -126 12 -140 6 -22 1 -29 -36 -49 -58 -33 -167 -145 -207 -212
-93 -160 -113 -340 -56 -519 44 -139 133 -257 246 -327 l60 -37 -9 -45 c-4
-25 -8 -98 -8 -161 0 -140 24 -226 95 -334 143 -219 402 -326 658 -272 l62 13
48 -71 c80 -118 215 -211 364 -251 96 -25 267 -17 360 17 137 51 242 133 314
244 21 32 38 60 39 61 0 1 27 -5 60 -13 312 -73 639 118 738 431 18 56 22 94
22 190 0 68 -5 134 -12 152 -12 33 -12 33 45 70 133 88 227 218 266 370 20 77
20 228 1 312 -34 143 -142 295 -266 374 l-56 36 13 63 c65 310 -118 631 -417
729 -61 20 -94 24 -189 24 -63 0 -136 -4 -161 -8 l-46 -9 -28 47 c-39 67 -132
156 -211 203 -117 69 -261 98 -399 82z m911 -852 c14 -14 18 -40 22 -130 3
-96 0 -127 -21 -209 -14 -53 -41 -132 -61 -175 -96 -206 -290 -432 -480 -559
-106 -71 -317 -185 -340 -185 -6 0 -94 83 -196 185 l-184 184 57 114 c86 174
186 319 291 422 187 185 376 301 579 356 96 25 307 24 333 -3z m-1140 -299
c32 -7 63 -15 68 -20 5 -4 -10 -29 -32 -56 -62 -75 -144 -207 -211 -341 l-62
-122 -37 15 c-154 64 -282 120 -282 125 0 3 87 92 193 196 225 223 233 228
363 203z m842 -846 c13 -85 8 -121 -27 -176 -24 -38 -368 -383 -375 -376 -5 4
-136 308 -136 314 0 2 52 29 115 60 113 56 284 163 359 224 21 17 42 31 46 31
3 0 12 -35 18 -77z m-932 39 c98 -50 164 -169 149 -270 -7 -52 -36 -115 -68
-151 -50 -53 -208 -111 -415 -151 -129 -25 -132 -25 -132 3 0 41 48 251 79
348 44 137 93 198 188 234 51 20 147 13 199 -13z"/>
<path d="M1945 2158 c-73 -16 -125 -85 -125 -165 0 -82 50 -143 133 -164 147
-35 260 134 174 262 -39 59 -108 84 -182 67z"/>
</g>
</svg>
